<svg width="198" height="263" viewBox="0 0 198 263" fill="none" xmlns="http://www.w3.org/2000/svg">
<g clip-path="url(#clip0_22_63)">
<path d="M196.916 19.093L54.6143 101.251L19.4883 80.971L159.734 0L196.916 19.093Z" fill="#FAFAFA"/>
<path d="M53.4423 105.222L18.4023 84.9922V145.012L53.4423 124.517V105.222Z" fill="#FAFAFA"/>
<path d="M197.864 23.4351L57.2305 104.631V122.302L141.371 73.0881L184.361 95.4101V111.006L197.864 103.21V23.4351Z" fill="#FAFAFA"/>
<path d="M35.04 183.272L0 163.041V239.416L35.04 259.646V183.272Z" fill="#FAFAFA"/>
<path d="M178.515 97.1418L36.2139 179.3L1.08789 159.02L141.334 78.0488L178.515 97.1418Z" fill="#FAFAFA"/>
<path d="M179.462 101.484L38.8281 182.68V262.454L179.462 181.259V101.484Z" fill="#FAFAFA"/>
</g>
<defs>
<clipPath id="clip0_22_63">
<rect width="197.864" height="262.454" fill="white"/>
</clipPath>
</defs>
</svg>
